<?xml version="1.0" encoding="UTF-8"?>
<!DOCTYPE svg PUBLIC "-//W3C//DTD SVG 1.1//EN" "http://www.w3.org/Graphics/SVG/1.1/DTD/svg11.dtd">
<!-- Creator: CorelDRAW 2017 -->
<svg xmlns="http://www.w3.org/2000/svg" xml:space="preserve" width="156px" height="156px" version="1.1" style="shape-rendering:geometricPrecision; text-rendering:geometricPrecision; image-rendering:optimizeQuality; fill-rule:evenodd; clip-rule:evenodd"
viewBox="0 0 11 11"
 xmlns:xlink="http://www.w3.org/1999/xlink">
 <defs>
  <style type="text/css">
   <![CDATA[
    .fil0 {fill:#990099}
   ]]>
  </style>
 </defs>
 <g id="Layer_x0020_1">
  <metadata id="CorelCorpID_0Corel-Layer"/>
  <path class="fil0" d="M7.31 1.32c2.04,0 3.69,1.65 3.69,3.69 0,2.04 -1.65,3.69 -3.69,3.69 -0.56,-0.01 -1.18,-0.14 -1.68,-0.41 -0.23,-0.13 -0.02,-0.25 0.12,-0.39 0.31,-0.32 0.63,-0.64 0.95,-0.96 0.2,-0.19 0.22,-0.11 0.47,-0.09 0.05,0 0.09,0 0.14,0 1.02,0 1.85,-0.82 1.85,-1.84 0,-1.02 -0.83,-1.84 -1.85,-1.84 -0.48,0 -0.89,0.16 -1.24,0.48 -0.19,0.17 -0.17,0.15 -0.39,0.03 -0.55,-0.3 -1.12,-0.47 -1.74,-0.5 -0.38,-0.02 -0.31,-0.28 -0.31,-0.59 0,-0.8 0,-1.6 0,-2.41 0,-0.1 0.08,-0.18 0.18,-0.18l1.48 0c0.1,0 0.18,0.08 0.18,0.18l0 1.64c0.54,-0.32 1.17,-0.5 1.84,-0.5zm-2.02 7.84l-1.6 0c-1.02,0 -1.85,-0.83 -1.85,-1.85 0,-1.01 0.83,-1.84 1.85,-1.84 0.35,0 0.68,0.1 0.96,0.27l-1.59 1.58c-0.07,0.08 -0.07,0.19 0,0.26l1.04 1.05c0.08,0.07 0.19,0.07 0.26,0 0.85,-0.85 1.7,-1.7 2.55,-2.55 0.22,-0.21 0.14,-0.3 0,-0.55 -0.66,-1.19 -1.87,-1.89 -3.22,-1.9 -2.04,0 -3.69,1.65 -3.69,3.68 0,2.04 1.65,3.69 3.69,3.69l1.6 0c0.1,0 0.18,-0.08 0.18,-0.18l0 -1.48c0,-0.1 -0.08,-0.18 -0.18,-0.18z"/>
 </g>
</svg>
